
<svg data-v-0dd9719b="" version="1.0" xmlns="http://www.w3.org/2000/svg" xmlns:xlink="http://www.w3.org/1999/xlink" width="100%" height="100%" viewBox="0 0 340.000000 250.000000" preserveAspectRatio="xMidYMid meet" color-interpolation-filters="sRGB" style="margin: auto;">   <g data-v-0dd9719b="" fill="#333" class="iconlettersvg-g iconlettersvg" transform="translate(130.3906478881836,102.49508818611503)"><g><g class="tp-name"><g transform="scale(1)"><g transform="translate(0, 0)"><g class="name-imagesvg"><g><rect fill="#333" fill-opacity="0" stroke-width="2" x="0" y="0" width="20.35722694942467" height="45" class="image-rect"></rect> <svg x="0" y="0" width="20.35722694942467" height="45" filtersec="colorsb2852433303" class="image-svg-svg primary" style="overflow: visible;"><svg xmlns="http://www.w3.org/2000/svg" viewBox="0 0 5.07 11.23"><title>资源 6</title><path d="M3.59.09A2.25 2.25 0 0 0 2.72 0v1.52a.71.71 0 0 1 .61.27 1.44 1.44 0 0 1 .24.85v.6L5.07 3V2A2 2 0 0 0 3.59.09z" fill="#fabe00"></path><path d="M3.29 5.25l-1 1.17c1 .83 1.29 1.07 1.29 1.94a1.67 1.67 0 0 1-.2.8 1.24 1.24 0 0 1-.31.34 1 1 0 0 1-.33.16v1.5a2.75 2.75 0 0 0 .91-.36 2.88 2.88 0 0 0 .79-.72 2.57 2.57 0 0 0 .48-.93 3.15 3.15 0 0 0 .17-1c-.02-1.31-.71-1.96-1.8-2.9z" fill="#00d6cf"></path><path d="M2.34 9.71a.69.69 0 0 1-.6-.27 1.44 1.44 0 0 1-.24-.85V8L0 8.21v1a2 2 0 0 0 .68 1.52 2.11 2.11 0 0 0 .8.42 2.2 2.2 0 0 0 .86.08z" fill="#7f75ff"></path><path d="M2.17 5.93C1 4.91.3 4.3.3 3a2.89 2.89 0 0 1 .15-.91 2.32 2.32 0 0 1 .43-.82 2.41 2.41 0 0 1 .68-.59 2.4 2.4 0 0 1 .78-.3V.07a2.84 2.84 0 0 0-.91.36 2.7 2.7 0 0 0-.78.72 2.76 2.76 0 0 0-.49.93 3.14 3.14 0 0 0-.16 1c0 1.4.78 2.06 2 3.12l.21-.2zM.9 3a2.4 2.4 0 0 1 .3-1.15 2.17 2.17 0 0 1 .5-.55 1.62 1.62 0 0 1 .56-.3h.08V.68a2.15 2.15 0 0 0-.65.25 2.35 2.35 0 0 0-.59.54 2.13 2.13 0 0 0-.36.7A2.45 2.45 0 0 0 .6 3c0 1.13.63 1.68 1.79 2.68l.21-.18h-.07C1.38 4.51.9 4.13.9 3zm.6-.09a1.67 1.67 0 0 1 .2-.8 1.24 1.24 0 0 1 .3-.38 1 1 0 0 1 .33-.16v-.3a1.26 1.26 0 0 0-.45.22 1.68 1.68 0 0 0-.4.44 2 2 0 0 0-.25 1c0 1 .39 1.36 1.54 2.29l.07.06L3 5C1.82 4 1.5 3.8 1.5 2.87z" fill="#ff5454"></path></svg></svg> <!----></g></g></g><g transform="translate(20.35722694942467, 0)"><g class="name-imagesvg"><g><rect fill="#333" fill-opacity="0" stroke-width="2" x="0" y="0" width="19.084694981022103" height="45" class="image-rect"></rect> <svg x="0" y="0" width="19.084694981022103" height="45" filtersec="colorsb5978854475" class="image-svg-svg primary" style="overflow: visible;"><svg xmlns="http://www.w3.org/2000/svg" viewBox="0 0 4.85 11.45"><title>资源 21</title><path d="M3.3 9.75a1.62 1.62 0 0 0 .35-1.09V.18h-.3v8.53a1.25 1.25 0 0 1-.27.86 1.07 1.07 0 0 1-.47.32v.31a1.17 1.17 0 0 0 .3-.14 1.61 1.61 0 0 0 .39-.31zM4.55 0v8.68a2.59 2.59 0 0 1-1.31 2.16 2.53 2.53 0 0 1-.33.16 1.49 1.49 0 0 1-.3.09v.3a2.44 2.44 0 0 0 .75-.29 2.94 2.94 0 0 0 1.49-2.47V0zM3.12 10.58a2.19 2.19 0 0 0 1.13-1.86V.09L4 .13v8.49a2 2 0 0 1-.44 1.31 2 2 0 0 1-.47.39 1.89 1.89 0 0 1-.45.19v.28l.25-.07a1.46 1.46 0 0 0 .23-.14z" fill="#00d6cf"></path><path d="M2.23 9.94a.67.67 0 0 1-.47-.18A1 1 0 0 1 1.5 9V.49L0 .72v8.63a2.05 2.05 0 0 0 1.49 2 2 2 0 0 0 .74.08z" fill="#ff5454"></path></svg></svg> <!----></g></g></g><g transform="translate(39.441921930446775, 0)"><g class="name-imagesvg"><g><rect fill="#333" fill-opacity="0" stroke-width="2" x="0" y="0" width="16.874999521034095" height="45" class="image-rect"></rect> <svg x="0" y="0" width="16.874999521034095" height="45" filtersec="colorsb2801282908" class="image-svg-svg primary" style="overflow: visible;"><svg xmlns="http://www.w3.org/2000/svg" viewBox="0 0 4.2 11.2"><title>资源 10</title><path fill="#ff5454" d="M4.2 9.17L0 9.79v1.41l4.2-.62V9.17z"></path><path d="M0 9.41h.3V.18L0 .22zm.6-.09h.3V.09L.6.13zM1.2 0v9.2l.3-.05V0z" fill="#7f75ff"></path></svg></svg> <!----></g></g></g><g transform="translate(56.316921451480866, 0)"><g class="name-imagesvg"><g><rect fill="#333" fill-opacity="0" stroke-width="2" x="0" y="0" width="16.874999521034095" height="45" class="image-rect"></rect> <svg x="0" y="0" width="16.874999521034095" height="45" filtersec="colorsb5089567500" class="image-svg-svg primary" style="overflow: visible;"><svg xmlns="http://www.w3.org/2000/svg" viewBox="0 0 4.2 11.2"><title>资源 10</title><path fill="#ff5454" d="M4.2 9.17L0 9.79v1.41l4.2-.62V9.17z"></path><path d="M0 9.41h.3V.18L0 .22zm.6-.09h.3V.09L.6.13zM1.2 0v9.2l.3-.05V0z" fill="#7f75ff"></path></svg></svg> <!----></g></g></g><g transform="translate(73.19192097251496, 0)"><g class="name-imagesvg"><g><rect fill="#333" fill-opacity="0" stroke-width="2" x="0" y="0" width="6.026785816921265" height="45" class="image-rect"></rect> <svg x="0" y="0" width="6.026785816921265" height="45" filtersec="colorsb4326922875" class="image-svg-svg primary" style="overflow: visible;"><svg xmlns="http://www.w3.org/2000/svg" viewBox="0 0 1.5 11.2"><title>资源 13</title><g fill="#ff5454"><path d="M1.5 0l-.3.04v10.99l.3-.05V0zM.9.09L.6.13v10.99l.3-.05V.09zM.3.18L0 .22V11.2l.3-.04V.18z"></path></g></svg></svg> <!----></g></g></g></g></g></g> <!----></g><defs v-gra="od"></defs></svg>